<svg width="199" height="160" viewBox="0 0 199 160" fill="none" xmlns="http://www.w3.org/2000/svg">
<g filter="url(#filter0_ddd_1370_306186)">
<rect x="24" y="37.2283" width="151" height="88" rx="8" fill="white"/>
<rect x="24.35" y="37.5783" width="150.3" height="87.3" rx="7.65" stroke="#F2F3F5" stroke-width="0.7"/>
</g>
<rect x="22.5" y="35.7283" width="154" height="91" rx="7.5" fill="white" stroke="#F2F3F5"/>
<path d="M77.2324 77.9861V87.2283H75.6392V77.9861H77.2324ZM80.5776 81.8264V87.2283H79.0479V80.3601H80.4888L80.5776 81.8264ZM80.3047 83.5403L79.8096 83.5339C79.8138 83.0473 79.8815 82.6008 80.0127 82.1946C80.1481 81.7883 80.3343 81.4392 80.5713 81.1472C80.8125 80.8552 81.1003 80.6309 81.4346 80.4744C81.7689 80.3136 82.1413 80.2332 82.5518 80.2332C82.8818 80.2332 83.1802 80.2797 83.4468 80.3728C83.7176 80.4617 83.9482 80.6077 84.1387 80.8108C84.3333 81.0139 84.4814 81.2784 84.583 81.6042C84.6846 81.9259 84.7354 82.3215 84.7354 82.7913V87.2283H83.1992V82.7849C83.1992 82.4548 83.1506 82.1946 83.0532 82.0042C82.9601 81.8095 82.8226 81.672 82.6406 81.5916C82.4629 81.5069 82.2407 81.4646 81.9741 81.4646C81.7118 81.4646 81.4769 81.5196 81.2695 81.6296C81.0622 81.7397 80.8866 81.8899 80.7427 82.0803C80.603 82.2708 80.4951 82.4908 80.4189 82.7405C80.3428 82.9902 80.3047 83.2568 80.3047 83.5403ZM89.1025 86.1365C89.3522 86.1365 89.5765 86.0878 89.7754 85.9905C89.9785 85.8889 90.1414 85.7493 90.2642 85.5715C90.3911 85.3938 90.4609 85.1886 90.4736 84.9558H91.9146C91.9061 85.4001 91.7749 85.8043 91.521 86.1682C91.2671 86.5321 90.9307 86.822 90.5117 87.0378C90.0928 87.2494 89.6294 87.3552 89.1216 87.3552C88.5968 87.3552 88.1398 87.2664 87.7505 87.0886C87.3612 86.9067 87.0374 86.657 86.7793 86.3396C86.5212 86.0222 86.3265 85.6562 86.1953 85.2415C86.0684 84.8267 86.0049 84.3824 86.0049 83.9084V83.6863C86.0049 83.2123 86.0684 82.768 86.1953 82.3533C86.3265 81.9343 86.5212 81.5662 86.7793 81.2488C87.0374 80.9314 87.3612 80.6838 87.7505 80.5061C88.1398 80.3241 88.5947 80.2332 89.1152 80.2332C89.6654 80.2332 90.1478 80.3432 90.5625 80.5632C90.9772 80.7791 91.3031 81.0816 91.54 81.4709C91.7812 81.856 91.9061 82.3046 91.9146 82.8167H90.4736C90.4609 82.5627 90.3975 82.3342 90.2832 82.1311C90.1732 81.9237 90.0166 81.7587 89.8135 81.636C89.6146 81.5133 89.3755 81.4519 89.0962 81.4519C88.7873 81.4519 88.5312 81.5154 88.3281 81.6423C88.125 81.7651 87.9663 81.9343 87.8521 82.1501C87.7378 82.3617 87.6553 82.6008 87.6045 82.8674C87.5579 83.1298 87.5347 83.4028 87.5347 83.6863V83.9084C87.5347 84.192 87.5579 84.467 87.6045 84.7336C87.651 85.0002 87.7314 85.2393 87.8457 85.4509C87.9642 85.6583 88.125 85.8254 88.3281 85.9524C88.5312 86.0751 88.7894 86.1365 89.1025 86.1365ZM94.625 81.6677V87.2283H93.0952V80.3601H94.5552L94.625 81.6677ZM96.7261 80.3157L96.7134 81.7375C96.6203 81.7206 96.5187 81.7079 96.4087 81.6995C96.3029 81.691 96.1971 81.6868 96.0913 81.6868C95.8289 81.6868 95.5983 81.7249 95.3994 81.801C95.2005 81.873 95.0334 81.9788 94.8979 82.1184C94.7668 82.2538 94.6652 82.4189 94.5933 82.6135C94.5213 82.8082 94.479 83.0261 94.4663 83.2673L94.1172 83.2927C94.1172 82.8611 94.1595 82.4612 94.2441 82.093C94.3288 81.7249 94.4557 81.4011 94.625 81.1218C94.7985 80.8425 95.0143 80.6246 95.2725 80.468C95.5348 80.3114 95.8374 80.2332 96.1802 80.2332C96.2733 80.2332 96.3727 80.2416 96.4785 80.2585C96.5885 80.2755 96.6711 80.2945 96.7261 80.3157ZM100.585 87.3552C100.078 87.3552 99.6185 87.2727 99.208 87.1077C98.8018 86.9384 98.4548 86.7035 98.167 86.4031C97.8835 86.1026 97.6655 85.7493 97.5132 85.343C97.3608 84.9368 97.2847 84.4988 97.2847 84.0291V83.7751C97.2847 83.2377 97.363 82.7511 97.5195 82.3152C97.6761 81.8793 97.894 81.5069 98.1733 81.198C98.4526 80.8848 98.7827 80.6458 99.1636 80.4807C99.5444 80.3157 99.957 80.2332 100.401 80.2332C100.892 80.2332 101.322 80.3157 101.69 80.4807C102.058 80.6458 102.363 80.8785 102.604 81.179C102.849 81.4752 103.031 81.8285 103.15 82.239C103.273 82.6495 103.334 83.1023 103.334 83.5974V84.2512H98.0273V83.1531H101.823V83.0325C101.815 82.7574 101.76 82.4993 101.658 82.2581C101.561 82.0168 101.411 81.8222 101.208 81.6741C101.004 81.526 100.734 81.4519 100.395 81.4519C100.141 81.4519 99.9147 81.5069 99.7158 81.6169C99.5212 81.7227 99.3582 81.8772 99.2271 82.0803C99.0959 82.2834 98.9943 82.5289 98.9224 82.8167C98.8547 83.1002 98.8208 83.4197 98.8208 83.7751V84.0291C98.8208 84.3295 98.861 84.6088 98.9414 84.8669C99.026 85.1208 99.1488 85.343 99.3096 85.5334C99.4704 85.7239 99.665 85.8741 99.8936 85.9841C100.122 86.0899 100.382 86.1428 100.674 86.1428C101.042 86.1428 101.37 86.0688 101.658 85.9207C101.946 85.7725 102.196 85.5631 102.407 85.2922L103.213 86.073C103.065 86.2888 102.873 86.4962 102.636 86.6951C102.399 86.8897 102.109 87.0484 101.766 87.1711C101.428 87.2939 101.034 87.3552 100.585 87.3552ZM108.399 85.8508V82.5754C108.399 82.33 108.355 82.1184 108.266 81.9407C108.177 81.7629 108.042 81.6254 107.86 81.5281C107.682 81.4307 107.458 81.3821 107.187 81.3821C106.937 81.3821 106.722 81.4244 106.54 81.509C106.358 81.5937 106.216 81.7079 106.114 81.8518C106.013 81.9957 105.962 82.1586 105.962 82.3406H104.438C104.438 82.0697 104.504 81.8074 104.635 81.5535C104.766 81.2996 104.957 81.0732 105.207 80.8743C105.456 80.6754 105.755 80.5188 106.102 80.4045C106.449 80.2903 106.838 80.2332 107.27 80.2332C107.786 80.2332 108.243 80.3199 108.641 80.4934C109.043 80.6669 109.358 80.9293 109.586 81.2805C109.819 81.6275 109.936 82.0634 109.936 82.5881V85.6414C109.936 85.9545 109.957 86.2359 109.999 86.4856C110.046 86.731 110.111 86.9447 110.196 87.1267V87.2283H108.628C108.556 87.0632 108.499 86.8538 108.457 86.5999C108.418 86.3417 108.399 86.092 108.399 85.8508ZM108.622 83.0515L108.634 83.9973H107.536C107.253 83.9973 107.003 84.0248 106.787 84.0798C106.571 84.1306 106.391 84.2068 106.248 84.3083C106.104 84.4099 105.996 84.5326 105.924 84.6765C105.852 84.8204 105.816 84.9833 105.816 85.1653C105.816 85.3472 105.858 85.5144 105.943 85.6667C106.028 85.8149 106.15 85.9312 106.311 86.0159C106.476 86.1005 106.675 86.1428 106.908 86.1428C107.221 86.1428 107.494 86.0793 107.727 85.9524C107.964 85.8212 108.15 85.6625 108.285 85.4763C108.421 85.2859 108.493 85.106 108.501 84.9368L108.996 85.616C108.945 85.7895 108.859 85.9757 108.736 86.1746C108.613 86.3735 108.452 86.5639 108.253 86.7458C108.059 86.9236 107.824 87.0696 107.549 87.1838C107.278 87.2981 106.965 87.3552 106.609 87.3552C106.161 87.3552 105.761 87.2664 105.41 87.0886C105.058 86.9067 104.783 86.6633 104.584 86.3586C104.386 86.0497 104.286 85.7006 104.286 85.3113C104.286 84.9473 104.354 84.6257 104.489 84.3464C104.629 84.0629 104.832 83.8259 105.099 83.6355C105.369 83.4451 105.7 83.3012 106.089 83.2039C106.478 83.1023 106.923 83.0515 107.422 83.0515H108.622ZM115.388 85.3684C115.388 85.2161 115.35 85.0785 115.274 84.9558C115.198 84.8289 115.052 84.7146 114.836 84.613C114.624 84.5115 114.311 84.4184 113.896 84.3337C113.533 84.2533 113.198 84.1581 112.894 84.0481C112.593 83.9338 112.335 83.7963 112.119 83.6355C111.903 83.4747 111.736 83.2843 111.618 83.0642C111.499 82.8442 111.44 82.5903 111.44 82.3025C111.44 82.0232 111.501 81.7587 111.624 81.509C111.747 81.2594 111.922 81.0393 112.151 80.8489C112.379 80.6584 112.657 80.5082 112.982 80.3982C113.312 80.2882 113.681 80.2332 114.087 80.2332C114.662 80.2332 115.155 80.3305 115.566 80.5251C115.981 80.7156 116.298 80.9758 116.518 81.3059C116.738 81.6318 116.848 81.9999 116.848 82.4104H115.318C115.318 82.2284 115.272 82.0592 115.179 81.9026C115.09 81.7418 114.954 81.6127 114.772 81.5154C114.59 81.4138 114.362 81.363 114.087 81.363C113.825 81.363 113.607 81.4054 113.433 81.49C113.264 81.5704 113.137 81.6762 113.052 81.8074C112.972 81.9386 112.932 82.0824 112.932 82.239C112.932 82.3533 112.953 82.4569 112.995 82.55C113.042 82.6389 113.118 82.7214 113.224 82.7976C113.329 82.8695 113.473 82.9373 113.655 83.0007C113.841 83.0642 114.074 83.1256 114.354 83.1848C114.878 83.2948 115.329 83.4366 115.706 83.6101C116.086 83.7794 116.378 83.9994 116.582 84.2703C116.785 84.5369 116.886 84.8754 116.886 85.2859C116.886 85.5906 116.821 85.8699 116.689 86.1238C116.562 86.3735 116.376 86.5914 116.131 86.7776C115.885 86.9596 115.591 87.1013 115.249 87.2029C114.91 87.3044 114.529 87.3552 114.106 87.3552C113.484 87.3552 112.957 87.2452 112.525 87.0251C112.094 86.8009 111.766 86.5152 111.542 86.1682C111.321 85.817 111.211 85.453 111.211 85.0764H112.69C112.707 85.3599 112.786 85.5863 112.925 85.7556C113.069 85.9207 113.247 86.0413 113.458 86.1174C113.674 86.1894 113.896 86.2253 114.125 86.2253C114.4 86.2253 114.631 86.1894 114.817 86.1174C115.003 86.0413 115.145 85.9397 115.242 85.8127C115.34 85.6816 115.388 85.5334 115.388 85.3684ZM121.253 87.3552C120.746 87.3552 120.286 87.2727 119.876 87.1077C119.47 86.9384 119.123 86.7035 118.835 86.4031C118.551 86.1026 118.333 85.7493 118.181 85.343C118.029 84.9368 117.953 84.4988 117.953 84.0291V83.7751C117.953 83.2377 118.031 82.7511 118.188 82.3152C118.344 81.8793 118.562 81.5069 118.841 81.198C119.121 80.8848 119.451 80.6458 119.832 80.4807C120.212 80.3157 120.625 80.2332 121.069 80.2332C121.56 80.2332 121.99 80.3157 122.358 80.4807C122.726 80.6458 123.031 80.8785 123.272 81.179C123.517 81.4752 123.699 81.8285 123.818 82.239C123.941 82.6495 124.002 83.1023 124.002 83.5974V84.2512H118.695V83.1531H122.491V83.0325C122.483 82.7574 122.428 82.4993 122.326 82.2581C122.229 82.0168 122.079 81.8222 121.875 81.6741C121.672 81.526 121.402 81.4519 121.063 81.4519C120.809 81.4519 120.583 81.5069 120.384 81.6169C120.189 81.7227 120.026 81.8772 119.895 82.0803C119.764 82.2834 119.662 82.5289 119.59 82.8167C119.523 83.1002 119.489 83.4197 119.489 83.7751V84.0291C119.489 84.3295 119.529 84.6088 119.609 84.8669C119.694 85.1208 119.817 85.343 119.978 85.5334C120.138 85.7239 120.333 85.8741 120.562 85.9841C120.79 86.0899 121.05 86.1428 121.342 86.1428C121.71 86.1428 122.038 86.0688 122.326 85.9207C122.614 85.7725 122.864 85.5631 123.075 85.2922L123.881 86.073C123.733 86.2888 123.541 86.4962 123.304 86.6951C123.067 86.8897 122.777 87.0484 122.434 87.1711C122.096 87.2939 121.702 87.3552 121.253 87.3552ZM57.0532 97.6804V105.869H55.5234V96.3601H56.9326L57.0532 97.6804ZM61.5283 99.7307V99.864C61.5283 100.363 61.4691 100.827 61.3506 101.254C61.2363 101.677 61.0649 102.048 60.8364 102.365C60.6121 102.678 60.335 102.921 60.0049 103.095C59.6748 103.268 59.2939 103.355 58.8623 103.355C58.4349 103.355 58.0604 103.277 57.7388 103.12C57.4214 102.96 57.1527 102.733 56.9326 102.441C56.7126 102.149 56.5348 101.806 56.3994 101.413C56.2682 101.015 56.1751 100.579 56.1201 100.105V99.5911C56.1751 99.0875 56.2682 98.6305 56.3994 98.22C56.5348 97.8095 56.7126 97.4561 56.9326 97.1599C57.1527 96.8637 57.4214 96.6352 57.7388 96.4744C58.0562 96.3136 58.4264 96.2332 58.8496 96.2332C59.2812 96.2332 59.6642 96.3178 59.9985 96.4871C60.3328 96.6521 60.6143 96.8891 60.8428 97.198C61.0713 97.5027 61.2427 97.8708 61.3569 98.3025C61.4712 98.7299 61.5283 99.206 61.5283 99.7307ZM59.9985 99.864V99.7307C59.9985 99.4133 59.9689 99.1192 59.9097 98.8484C59.8504 98.5733 59.7573 98.3321 59.6304 98.1248C59.5034 97.9174 59.3405 97.7566 59.1416 97.6423C58.9469 97.5238 58.7121 97.4646 58.437 97.4646C58.1662 97.4646 57.9334 97.5111 57.7388 97.6042C57.5441 97.6931 57.3812 97.818 57.25 97.9788C57.1188 98.1396 57.0173 98.3279 56.9453 98.5437C56.8734 98.7553 56.8226 98.9859 56.793 99.2356V100.467C56.8438 100.772 56.9305 101.051 57.0532 101.305C57.1759 101.559 57.3494 101.762 57.5737 101.914C57.8022 102.062 58.0942 102.136 58.4497 102.136C58.7248 102.136 58.9596 102.077 59.1543 101.959C59.349 101.84 59.5076 101.677 59.6304 101.47C59.7573 101.258 59.8504 101.015 59.9097 100.74C59.9689 100.465 59.9985 100.173 59.9985 99.864ZM64.3657 97.6677V103.228H62.8359V96.3601H64.2959L64.3657 97.6677ZM66.4668 96.3157L66.4541 97.7375C66.361 97.7206 66.2594 97.7079 66.1494 97.6995C66.0436 97.691 65.9378 97.6868 65.832 97.6868C65.5697 97.6868 65.339 97.7249 65.1401 97.801C64.9412 97.873 64.7741 97.9788 64.6387 98.1184C64.5075 98.2538 64.4059 98.4189 64.334 98.6135C64.262 98.8082 64.2197 99.0261 64.207 99.2673L63.8579 99.2927C63.8579 98.8611 63.9002 98.4612 63.9849 98.093C64.0695 97.7249 64.1965 97.4011 64.3657 97.1218C64.5392 96.8425 64.755 96.6246 65.0132 96.468C65.2756 96.3114 65.5781 96.2332 65.9209 96.2332C66.014 96.2332 66.1134 96.2416 66.2192 96.2585C66.3293 96.2755 66.4118 96.2945 66.4668 96.3157ZM66.9683 99.8704V99.7244C66.9683 99.2292 67.0402 98.7701 67.1841 98.3469C67.328 97.9195 67.5353 97.5492 67.8062 97.2361C68.0812 96.9187 68.4155 96.6733 68.8091 96.4998C69.2069 96.322 69.6554 96.2332 70.1548 96.2332C70.6584 96.2332 71.1069 96.322 71.5005 96.4998C71.8983 96.6733 72.2347 96.9187 72.5098 97.2361C72.7848 97.5492 72.9943 97.9195 73.1382 98.3469C73.2821 98.7701 73.354 99.2292 73.354 99.7244V99.8704C73.354 100.365 73.2821 100.825 73.1382 101.248C72.9943 101.671 72.7848 102.041 72.5098 102.359C72.2347 102.672 71.9004 102.917 71.5068 103.095C71.1133 103.268 70.6668 103.355 70.1675 103.355C69.6639 103.355 69.2132 103.268 68.8154 103.095C68.4219 102.917 68.0876 102.672 67.8125 102.359C67.5374 102.041 67.328 101.671 67.1841 101.248C67.0402 100.825 66.9683 100.365 66.9683 99.8704ZM68.498 99.7244V99.8704C68.498 100.179 68.5298 100.471 68.5933 100.746C68.6567 101.021 68.7562 101.263 68.8916 101.47C69.027 101.677 69.2005 101.84 69.4121 101.959C69.6237 102.077 69.8755 102.136 70.1675 102.136C70.451 102.136 70.6965 102.077 70.9038 101.959C71.1154 101.84 71.2889 101.677 71.4243 101.47C71.5597 101.263 71.6592 101.021 71.7227 100.746C71.7904 100.471 71.8242 100.179 71.8242 99.8704V99.7244C71.8242 99.4197 71.7904 99.1319 71.7227 98.8611C71.6592 98.586 71.5576 98.3427 71.418 98.1311C71.2826 97.9195 71.109 97.7545 70.8975 97.636C70.6901 97.5133 70.4425 97.4519 70.1548 97.4519C69.867 97.4519 69.6174 97.5133 69.4058 97.636C69.1984 97.7545 69.027 97.9195 68.8916 98.1311C68.7562 98.3427 68.6567 98.586 68.5933 98.8611C68.5298 99.1319 68.498 99.4197 68.498 99.7244ZM77.7847 96.3601V97.4773H73.9126V96.3601H77.7847ZM75.0298 94.678H76.5596V101.33C76.5596 101.542 76.5892 101.705 76.6484 101.819C76.7119 101.929 76.7987 102.003 76.9087 102.041C77.0187 102.079 77.1478 102.098 77.2959 102.098C77.4017 102.098 77.5033 102.092 77.6006 102.079C77.6979 102.067 77.7762 102.054 77.8354 102.041L77.8418 103.209C77.7148 103.247 77.5667 103.281 77.3975 103.311C77.2324 103.34 77.042 103.355 76.8262 103.355C76.4749 103.355 76.1639 103.294 75.8931 103.171C75.6222 103.044 75.4106 102.839 75.2583 102.555C75.106 102.272 75.0298 101.895 75.0298 101.426V94.678ZM81.9932 103.355C81.4854 103.355 81.0262 103.273 80.6157 103.108C80.2095 102.938 79.8625 102.704 79.5747 102.403C79.2912 102.103 79.0732 101.749 78.9209 101.343C78.7686 100.937 78.6924 100.499 78.6924 100.029V99.7751C78.6924 99.2377 78.7707 98.7511 78.9272 98.3152C79.0838 97.8793 79.3018 97.5069 79.5811 97.198C79.8604 96.8848 80.1904 96.6458 80.5713 96.4807C80.9521 96.3157 81.3647 96.2332 81.8091 96.2332C82.3 96.2332 82.7295 96.3157 83.0977 96.4807C83.4658 96.6458 83.7705 96.8785 84.0117 97.179C84.2572 97.4752 84.4391 97.8285 84.5576 98.239C84.6803 98.6495 84.7417 99.1023 84.7417 99.5974V100.251H79.4351V99.1531H83.231V99.0325C83.2225 98.7574 83.1675 98.4993 83.0659 98.2581C82.9686 98.0168 82.8184 97.8222 82.6152 97.6741C82.4121 97.526 82.1413 97.4519 81.8027 97.4519C81.5488 97.4519 81.3224 97.5069 81.1235 97.6169C80.9289 97.7227 80.766 97.8772 80.6348 98.0803C80.5036 98.2834 80.402 98.5289 80.3301 98.8167C80.2624 99.1002 80.2285 99.4197 80.2285 99.7751V100.029C80.2285 100.33 80.2687 100.609 80.3491 100.867C80.4338 101.121 80.5565 101.343 80.7173 101.533C80.8781 101.724 81.0728 101.874 81.3013 101.984C81.5298 102.09 81.79 102.143 82.082 102.143C82.4502 102.143 82.7782 102.069 83.0659 101.921C83.3537 101.773 83.6034 101.563 83.8149 101.292L84.6211 102.073C84.473 102.289 84.2804 102.496 84.0435 102.695C83.8065 102.89 83.5166 103.048 83.1738 103.171C82.8353 103.294 82.4417 103.355 81.9932 103.355ZM88.7407 102.136C88.9904 102.136 89.2147 102.088 89.4136 101.99C89.6167 101.889 89.7796 101.749 89.9023 101.572C90.0293 101.394 90.0991 101.189 90.1118 100.956H91.5527C91.5443 101.4 91.4131 101.804 91.1592 102.168C90.9053 102.532 90.5688 102.822 90.1499 103.038C89.731 103.249 89.2676 103.355 88.7598 103.355C88.235 103.355 87.778 103.266 87.3887 103.089C86.9993 102.907 86.6756 102.657 86.4175 102.34C86.1593 102.022 85.9647 101.656 85.8335 101.241C85.7065 100.827 85.6431 100.382 85.6431 99.9084V99.6863C85.6431 99.2123 85.7065 98.768 85.8335 98.3533C85.9647 97.9343 86.1593 97.5662 86.4175 97.2488C86.6756 96.9314 86.9993 96.6838 87.3887 96.5061C87.778 96.3241 88.2329 96.2332 88.7534 96.2332C89.3035 96.2332 89.786 96.3432 90.2007 96.5632C90.6154 96.7791 90.9412 97.0816 91.1782 97.4709C91.4194 97.856 91.5443 98.3046 91.5527 98.8167H90.1118C90.0991 98.5627 90.0356 98.3342 89.9214 98.1311C89.8114 97.9237 89.6548 97.7587 89.4517 97.636C89.2528 97.5133 89.0137 97.4519 88.7344 97.4519C88.4255 97.4519 88.1694 97.5154 87.9663 97.6423C87.7632 97.7651 87.6045 97.9343 87.4902 98.1501C87.376 98.3617 87.2935 98.6008 87.2427 98.8674C87.1961 99.1298 87.1729 99.4028 87.1729 99.6863V99.9084C87.1729 100.192 87.1961 100.467 87.2427 100.734C87.2892 101 87.3696 101.239 87.4839 101.451C87.6024 101.658 87.7632 101.825 87.9663 101.952C88.1694 102.075 88.4276 102.136 88.7407 102.136ZM95.8755 96.3601V97.4773H92.0034V96.3601H95.8755ZM93.1206 94.678H94.6504V101.33C94.6504 101.542 94.68 101.705 94.7393 101.819C94.8027 101.929 94.8895 102.003 94.9995 102.041C95.1095 102.079 95.2386 102.098 95.3867 102.098C95.4925 102.098 95.5941 102.092 95.6914 102.079C95.7887 102.067 95.867 102.054 95.9263 102.041L95.9326 103.209C95.8057 103.247 95.6576 103.281 95.4883 103.311C95.3232 103.34 95.1328 103.355 94.917 103.355C94.5658 103.355 94.2547 103.294 93.9839 103.171C93.7131 103.044 93.5015 102.839 93.3491 102.555C93.1968 102.272 93.1206 101.895 93.1206 101.426V94.678ZM98.6938 96.3601V103.228H97.1577V96.3601H98.6938ZM97.0562 94.5574C97.0562 94.3246 97.1323 94.1321 97.2847 93.9797C97.4412 93.8232 97.6571 93.7449 97.9321 93.7449C98.203 93.7449 98.4167 93.8232 98.5732 93.9797C98.7298 94.1321 98.8081 94.3246 98.8081 94.5574C98.8081 94.7859 98.7298 94.9763 98.5732 95.1287C98.4167 95.281 98.203 95.3572 97.9321 95.3572C97.6571 95.3572 97.4412 95.281 97.2847 95.1287C97.1323 94.9763 97.0562 94.7859 97.0562 94.5574ZM100.078 99.8704V99.7244C100.078 99.2292 100.15 98.7701 100.293 98.3469C100.437 97.9195 100.645 97.5492 100.916 97.2361C101.191 96.9187 101.525 96.6733 101.918 96.4998C102.316 96.322 102.765 96.2332 103.264 96.2332C103.768 96.2332 104.216 96.322 104.61 96.4998C105.008 96.6733 105.344 96.9187 105.619 97.2361C105.894 97.5492 106.104 97.9195 106.248 98.3469C106.391 98.7701 106.463 99.2292 106.463 99.7244V99.8704C106.463 100.365 106.391 100.825 106.248 101.248C106.104 101.671 105.894 102.041 105.619 102.359C105.344 102.672 105.01 102.917 104.616 103.095C104.223 103.268 103.776 103.355 103.277 103.355C102.773 103.355 102.323 103.268 101.925 103.095C101.531 102.917 101.197 102.672 100.922 102.359C100.647 102.041 100.437 101.671 100.293 101.248C100.15 100.825 100.078 100.365 100.078 99.8704ZM101.607 99.7244V99.8704C101.607 100.179 101.639 100.471 101.703 100.746C101.766 101.021 101.866 101.263 102.001 101.47C102.136 101.677 102.31 101.84 102.521 101.959C102.733 102.077 102.985 102.136 103.277 102.136C103.56 102.136 103.806 102.077 104.013 101.959C104.225 101.84 104.398 101.677 104.534 101.47C104.669 101.263 104.769 101.021 104.832 100.746C104.9 100.471 104.934 100.179 104.934 99.8704V99.7244C104.934 99.4197 104.9 99.1319 104.832 98.8611C104.769 98.586 104.667 98.3427 104.527 98.1311C104.392 97.9195 104.218 97.7545 104.007 97.636C103.799 97.5133 103.552 97.4519 103.264 97.4519C102.976 97.4519 102.727 97.5133 102.515 97.636C102.308 97.7545 102.136 97.9195 102.001 98.1311C101.866 98.3427 101.766 98.586 101.703 98.8611C101.639 99.1319 101.607 99.4197 101.607 99.7244ZM109.263 97.8264V103.228H107.733V96.3601H109.174L109.263 97.8264ZM108.99 99.5403L108.495 99.5339C108.499 99.0473 108.567 98.6008 108.698 98.1946C108.833 97.7883 109.019 97.4392 109.256 97.1472C109.498 96.8552 109.785 96.6309 110.12 96.4744C110.454 96.3136 110.826 96.2332 111.237 96.2332C111.567 96.2332 111.865 96.2797 112.132 96.3728C112.403 96.4617 112.633 96.6077 112.824 96.8108C113.018 97.0139 113.167 97.2784 113.268 97.6042C113.37 97.9259 113.42 98.3215 113.42 98.7913V103.228H111.884V98.7849C111.884 98.4548 111.836 98.1946 111.738 98.0042C111.645 97.8095 111.508 97.672 111.326 97.5916C111.148 97.5069 110.926 97.4646 110.659 97.4646C110.397 97.4646 110.162 97.5196 109.955 97.6296C109.747 97.7397 109.572 97.8899 109.428 98.0803C109.288 98.2708 109.18 98.4908 109.104 98.7405C109.028 98.9902 108.99 99.2568 108.99 99.5403ZM119.857 93.4783V103.228H118.321V93.4783H119.857ZM124.561 103.355C124.053 103.355 123.594 103.273 123.183 103.108C122.777 102.938 122.43 102.704 122.142 102.403C121.859 102.103 121.641 101.749 121.488 101.343C121.336 100.937 121.26 100.499 121.26 100.029V99.7751C121.26 99.2377 121.338 98.7511 121.495 98.3152C121.651 97.8793 121.869 97.5069 122.148 97.198C122.428 96.8848 122.758 96.6458 123.139 96.4807C123.52 96.3157 123.932 96.2332 124.376 96.2332C124.867 96.2332 125.297 96.3157 125.665 96.4807C126.033 96.6458 126.338 96.8785 126.579 97.179C126.825 97.4752 127.007 97.8285 127.125 98.239C127.248 98.6495 127.309 99.1023 127.309 99.5974V100.251H122.002V99.1531H125.798V99.0325C125.79 98.7574 125.735 98.4993 125.633 98.2581C125.536 98.0168 125.386 97.8222 125.183 97.6741C124.979 97.526 124.709 97.4519 124.37 97.4519C124.116 97.4519 123.89 97.5069 123.691 97.6169C123.496 97.7227 123.333 97.8772 123.202 98.0803C123.071 98.2834 122.969 98.5289 122.897 98.8167C122.83 99.1002 122.796 99.4197 122.796 99.7751V100.029C122.796 100.33 122.836 100.609 122.917 100.867C123.001 101.121 123.124 101.343 123.285 101.533C123.445 101.724 123.64 101.874 123.869 101.984C124.097 102.09 124.357 102.143 124.649 102.143C125.018 102.143 125.346 102.069 125.633 101.921C125.921 101.773 126.171 101.563 126.382 101.292L127.188 102.073C127.04 102.289 126.848 102.496 126.611 102.695C126.374 102.89 126.084 103.048 125.741 103.171C125.403 103.294 125.009 103.355 124.561 103.355ZM130.648 102.016L132.33 96.3601H133.917L131.53 103.228H130.54L130.648 102.016ZM129.359 96.3601L131.073 102.041L131.156 103.228H130.166L127.766 96.3601H129.359ZM137.802 103.355C137.294 103.355 136.835 103.273 136.424 103.108C136.018 102.938 135.671 102.704 135.383 102.403C135.1 102.103 134.882 101.749 134.729 101.343C134.577 100.937 134.501 100.499 134.501 100.029V99.7751C134.501 99.2377 134.579 98.7511 134.736 98.3152C134.892 97.8793 135.11 97.5069 135.39 97.198C135.669 96.8848 135.999 96.6458 136.38 96.4807C136.761 96.3157 137.173 96.2332 137.618 96.2332C138.109 96.2332 138.538 96.3157 138.906 96.4807C139.274 96.6458 139.579 96.8785 139.82 97.179C140.066 97.4752 140.248 97.8285 140.366 98.239C140.489 98.6495 140.55 99.1023 140.55 99.5974V100.251H135.244V99.1531H139.04V99.0325C139.031 98.7574 138.976 98.4993 138.875 98.2581C138.777 98.0168 138.627 97.8222 138.424 97.6741C138.221 97.526 137.95 97.4519 137.611 97.4519C137.357 97.4519 137.131 97.5069 136.932 97.6169C136.737 97.7227 136.575 97.8772 136.443 98.0803C136.312 98.2834 136.211 98.5289 136.139 98.8167C136.071 99.1002 136.037 99.4197 136.037 99.7751V100.029C136.037 100.33 136.077 100.609 136.158 100.867C136.242 101.121 136.365 101.343 136.526 101.533C136.687 101.724 136.881 101.874 137.11 101.984C137.338 102.09 137.599 102.143 137.891 102.143C138.259 102.143 138.587 102.069 138.875 101.921C139.162 101.773 139.412 101.563 139.624 101.292L140.43 102.073C140.282 102.289 140.089 102.496 139.852 102.695C139.615 102.89 139.325 103.048 138.982 103.171C138.644 103.294 138.25 103.355 137.802 103.355ZM143.381 93.4783V103.228H141.845V93.4783H143.381Z" fill="#603AC7"/>
<g filter="url(#filter1_d_1370_306186)">
<path d="M120 35.2283C120 46.8263 110.598 56.2283 99 56.2283C87.402 56.2283 78 46.8263 78 35.2283C78 23.6303 87.402 14.2283 99 14.2283C110.598 14.2283 120 23.6303 120 35.2283Z" fill="white"/>
<path d="M120 35.2283C120 46.8263 110.598 56.2283 99 56.2283C87.402 56.2283 78 46.8263 78 35.2283C78 23.6303 87.402 14.2283 99 14.2283C110.598 14.2283 120 23.6303 120 35.2283Z" fill="url(#paint0_linear_1370_306186)"/>
</g>
<path d="M122.264 35.0027C122.264 47.778 111.907 58.1345 99.1318 58.1345C86.3565 58.1345 76 47.778 76 35.0027C76 22.2273 86.3565 11.8708 99.1318 11.8708C111.907 11.8708 122.264 22.2273 122.264 35.0027Z" fill="white"/>
<path d="M122.264 35.0027C122.264 47.778 111.907 58.1345 99.1318 58.1345C86.3565 58.1345 76 47.778 76 35.0027C76 22.2273 86.3565 11.8708 99.1318 11.8708C111.907 11.8708 122.264 22.2273 122.264 35.0027Z" fill="url(#paint1_linear_1370_306186)"/>
<path d="M90.7314 40.7083L94.7731 35.2402L100.003 39.7573L107.611 29.5344M107.611 29.5344L104.521 30.4853M107.611 29.5344V32.8628" stroke="white" stroke-width="3.11795" stroke-linecap="round" stroke-linejoin="round"/>
<defs>
<filter id="filter0_ddd_1370_306186" x="0" y="23.2283" width="199" height="136" filterUnits="userSpaceOnUse" color-interpolation-filters="sRGB">
<feFlood flood-opacity="0" result="BackgroundImageFix"/>
<feColorMatrix in="SourceAlpha" type="matrix" values="0 0 0 0 0 0 0 0 0 0 0 0 0 0 0 0 0 0 127 0" result="hardAlpha"/>
<feOffset/>
<feGaussianBlur stdDeviation="0.5"/>
<feColorMatrix type="matrix" values="0 0 0 0 0.0627451 0 0 0 0 0.0901961 0 0 0 0 0.160784 0 0 0 0.04 0"/>
<feBlend mode="normal" in2="BackgroundImageFix" result="effect1_dropShadow_1370_306186"/>
<feColorMatrix in="SourceAlpha" type="matrix" values="0 0 0 0 0 0 0 0 0 0 0 0 0 0 0 0 0 0 127 0" result="hardAlpha"/>
<feOffset dy="2"/>
<feGaussianBlur stdDeviation="3"/>
<feColorMatrix type="matrix" values="0 0 0 0 0.0627451 0 0 0 0 0.0901961 0 0 0 0 0.160784 0 0 0 0.06 0"/>
<feBlend mode="normal" in2="effect1_dropShadow_1370_306186" result="effect2_dropShadow_1370_306186"/>
<feColorMatrix in="SourceAlpha" type="matrix" values="0 0 0 0 0 0 0 0 0 0 0 0 0 0 0 0 0 0 127 0" result="hardAlpha"/>
<feOffset dy="10"/>
<feGaussianBlur stdDeviation="12"/>
<feColorMatrix type="matrix" values="0 0 0 0 0.0636458 0 0 0 0 0.091325 0 0 0 0 0.1625 0 0 0 0.06 0"/>
<feBlend mode="normal" in2="effect2_dropShadow_1370_306186" result="effect3_dropShadow_1370_306186"/>
<feBlend mode="normal" in="SourceGraphic" in2="effect3_dropShadow_1370_306186" result="shape"/>
</filter>
<filter id="filter1_d_1370_306186" x="62" y="0.228271" width="74" height="74" filterUnits="userSpaceOnUse" color-interpolation-filters="sRGB">
<feFlood flood-opacity="0" result="BackgroundImageFix"/>
<feColorMatrix in="SourceAlpha" type="matrix" values="0 0 0 0 0 0 0 0 0 0 0 0 0 0 0 0 0 0 127 0" result="hardAlpha"/>
<feOffset dy="2"/>
<feGaussianBlur stdDeviation="8"/>
<feComposite in2="hardAlpha" operator="out"/>
<feColorMatrix type="matrix" values="0 0 0 0 0.722377 0 0 0 0 0.563542 0 0 0 0 0.936458 0 0 0 0.74 0"/>
<feBlend mode="normal" in2="BackgroundImageFix" result="effect1_dropShadow_1370_306186"/>
<feBlend mode="normal" in="SourceGraphic" in2="effect1_dropShadow_1370_306186" result="shape"/>
</filter>
<linearGradient id="paint0_linear_1370_306186" x1="120.913" y1="14.2283" x2="73.4195" y2="18.6588" gradientUnits="userSpaceOnUse">
<stop stop-color="#9E4FF1"/>
<stop offset="1" stop-color="#844FF1"/>
</linearGradient>
<linearGradient id="paint1_linear_1370_306186" x1="123.269" y1="11.8709" x2="70.9545" y2="16.7512" gradientUnits="userSpaceOnUse">
<stop stop-color="#9E4FF1"/>
<stop offset="1" stop-color="#844FF1"/>
</linearGradient>
</defs>
</svg>
