<svg width="207" height="160" viewBox="0 0 207 160" fill="none" xmlns="http://www.w3.org/2000/svg">
<g filter="url(#filter0_ddd_1370_306179)">
<rect x="24" y="37.8708" width="159" height="88" rx="8" fill="white"/>
<rect x="24.35" y="38.2208" width="158.3" height="87.3" rx="7.65" stroke="#F2F3F5" stroke-width="0.7"/>
</g>
<rect x="22.5" y="36.3708" width="162" height="91" rx="7.5" fill="white" stroke="#F2F3F5"/>
<path d="M67.3057 84.6287V93.8708H65.7124V84.6287H67.3057ZM76.2432 92.4934V89.218C76.2432 88.9726 76.1987 88.761 76.1099 88.5833C76.021 88.4055 75.8856 88.268 75.7036 88.1707C75.5259 88.0733 75.3016 88.0247 75.0308 88.0247C74.7811 88.0247 74.5653 88.067 74.3833 88.1516C74.2013 88.2362 74.0596 88.3505 73.958 88.4944C73.8564 88.6383 73.8057 88.8012 73.8057 88.9832H72.2822C72.2822 88.7123 72.3478 88.45 72.479 88.196C72.6102 87.9421 72.8006 87.7157 73.0503 87.5168C73.3 87.318 73.5983 87.1614 73.9453 87.0471C74.2923 86.9329 74.6816 86.8757 75.1133 86.8757C75.6296 86.8757 76.0866 86.9625 76.4844 87.136C76.8864 87.3095 77.2017 87.5719 77.4302 87.9231C77.6629 88.2701 77.7793 88.706 77.7793 89.2307V92.2839C77.7793 92.5971 77.8005 92.8785 77.8428 93.1282C77.8893 93.3736 77.9549 93.5873 78.0396 93.7693V93.8708H76.4717C76.3997 93.7058 76.3426 93.4963 76.3003 93.2424C76.2622 92.9843 76.2432 92.7346 76.2432 92.4934ZM76.4653 89.6941L76.478 90.6399H75.3799C75.0964 90.6399 74.8467 90.6674 74.6309 90.7224C74.415 90.7732 74.2352 90.8494 74.0913 90.9509C73.9474 91.0525 73.8395 91.1752 73.7676 91.3191C73.6956 91.463 73.6597 91.6259 73.6597 91.8079C73.6597 91.9898 73.702 92.157 73.7866 92.3093C73.8713 92.4574 73.994 92.5738 74.1548 92.6584C74.3198 92.7431 74.5187 92.7854 74.7515 92.7854C75.0646 92.7854 75.3376 92.7219 75.5703 92.595C75.8073 92.4638 75.9935 92.3051 76.1289 92.1189C76.2643 91.9285 76.3363 91.7486 76.3447 91.5793L76.8398 92.2585C76.7891 92.432 76.7023 92.6182 76.5796 92.8171C76.4569 93.016 76.2961 93.2065 76.0972 93.3884C75.9025 93.5662 75.6676 93.7122 75.3926 93.8264C75.1217 93.9407 74.8086 93.9978 74.4531 93.9978C74.0046 93.9978 73.6047 93.9089 73.2534 93.7312C72.9022 93.5492 72.6271 93.3059 72.4282 93.0012C72.2293 92.6923 72.1299 92.3432 72.1299 91.9539C72.1299 91.5899 72.1976 91.2683 72.333 90.989C72.4727 90.7055 72.6758 90.4685 72.9424 90.2781C73.2132 90.0876 73.5433 89.9438 73.9326 89.8464C74.3219 89.7449 74.7663 89.6941 75.2656 89.6941H76.4653ZM80.9087 88.3992V93.8708H79.3789V87.0027H80.8198L80.9087 88.3992ZM80.6611 90.1829L80.1406 90.1765C80.1406 89.7026 80.1999 89.2646 80.3184 88.8625C80.4368 88.4605 80.6104 88.1114 80.8389 87.8152C81.0674 87.5147 81.3509 87.2841 81.6895 87.1233C82.0322 86.9583 82.4279 86.8757 82.8765 86.8757C83.1896 86.8757 83.4753 86.9223 83.7334 87.0154C83.9958 87.1042 84.2222 87.246 84.4126 87.4407C84.6073 87.6353 84.7554 87.885 84.8569 88.1897C84.9627 88.4944 85.0156 88.8625 85.0156 89.2942V93.8708H83.4858V89.4275C83.4858 89.0932 83.4351 88.8308 83.3335 88.6404C83.2362 88.45 83.0944 88.3145 82.9082 88.2341C82.7262 88.1495 82.5083 88.1072 82.2544 88.1072C81.9666 88.1072 81.7212 88.1622 81.5181 88.2722C81.3192 88.3822 81.1562 88.5325 81.0293 88.7229C80.9023 88.9133 80.8092 89.1334 80.75 89.3831C80.6908 89.6327 80.6611 89.8993 80.6611 90.1829ZM84.9204 89.7766L84.2031 89.9353C84.2031 89.5206 84.2603 89.1292 84.3745 88.761C84.493 88.3886 84.6644 88.0627 84.8887 87.7834C85.1172 87.4999 85.3986 87.2778 85.7329 87.1169C86.0672 86.9561 86.4502 86.8757 86.8818 86.8757C87.2331 86.8757 87.5462 86.9244 87.8213 87.0217C88.1006 87.1148 88.3376 87.2629 88.5322 87.4661C88.7269 87.6692 88.875 87.9337 88.9766 88.2595C89.0781 88.5811 89.1289 88.9705 89.1289 89.4275V93.8708H87.5928V89.4211C87.5928 89.0741 87.542 88.8054 87.4404 88.615C87.3431 88.4246 87.2035 88.2934 87.0215 88.2214C86.8395 88.1453 86.6216 88.1072 86.3677 88.1072C86.1307 88.1072 85.9212 88.1516 85.7393 88.2405C85.5615 88.3251 85.4113 88.4457 85.2886 88.6023C85.1659 88.7546 85.0728 88.9303 85.0093 89.1292C84.95 89.328 84.9204 89.5439 84.9204 89.7766ZM93.9468 84.1208H95.4766V92.4045L95.3306 93.8708H93.9468V84.1208ZM99.958 90.3733V90.5066C99.958 91.0144 99.9009 91.482 99.7866 91.9094C99.6766 92.3326 99.5073 92.7008 99.2788 93.0139C99.0545 93.3271 98.7752 93.5704 98.4409 93.7439C98.1108 93.9132 97.7279 93.9978 97.292 93.9978C96.8646 93.9978 96.4922 93.9174 96.1748 93.7566C95.8574 93.5958 95.5908 93.3673 95.375 93.071C95.1634 92.7748 94.992 92.4215 94.8608 92.011C94.7297 91.6005 94.6366 91.1477 94.5815 90.6526V90.2273C94.6366 89.7279 94.7297 89.2751 94.8608 88.8689C94.992 88.4584 95.1634 88.1051 95.375 87.8088C95.5908 87.5084 95.8553 87.2778 96.1685 87.1169C96.4858 86.9561 96.8561 86.8757 97.2793 86.8757C97.7194 86.8757 98.1066 86.9604 98.4409 87.1296C98.7795 87.2989 99.0609 87.5401 99.2852 87.8533C99.5094 88.1622 99.6766 88.5304 99.7866 88.9578C99.9009 89.3852 99.958 89.857 99.958 90.3733ZM98.4282 90.5066V90.3733C98.4282 90.0644 98.4028 89.7745 98.3521 89.5037C98.3013 89.2286 98.2166 88.9874 98.0981 88.78C97.9839 88.5727 97.8273 88.4097 97.6284 88.2913C97.4338 88.1685 97.1904 88.1072 96.8984 88.1072C96.6276 88.1072 96.3949 88.1537 96.2002 88.2468C96.0055 88.3399 95.8426 88.4669 95.7114 88.6277C95.5802 88.7885 95.4766 88.9747 95.4004 89.1863C95.3285 89.3979 95.2798 89.6264 95.2544 89.8718V91.0208C95.2925 91.3381 95.3729 91.6301 95.4956 91.8967C95.6226 92.1591 95.8003 92.3707 96.0288 92.5315C96.2573 92.6881 96.5514 92.7664 96.9111 92.7664C97.1947 92.7664 97.4338 92.7092 97.6284 92.595C97.8231 92.4807 97.9775 92.322 98.0918 92.1189C98.2103 91.9115 98.2949 91.6703 98.3457 91.3953C98.4007 91.1202 98.4282 90.824 98.4282 90.5066ZM102.891 84.1208V93.8708H101.354V84.1208H102.891ZM104.274 90.5129V90.3669C104.274 89.8718 104.346 89.4127 104.49 88.9895C104.634 88.5621 104.841 88.1918 105.112 87.8787C105.387 87.5613 105.722 87.3158 106.115 87.1423C106.513 86.9646 106.962 86.8757 107.461 86.8757C107.965 86.8757 108.413 86.9646 108.807 87.1423C109.204 87.3158 109.541 87.5613 109.816 87.8787C110.091 88.1918 110.3 88.5621 110.444 88.9895C110.588 89.4127 110.66 89.8718 110.66 90.3669V90.5129C110.66 91.0081 110.588 91.4672 110.444 91.8904C110.3 92.3136 110.091 92.6838 109.816 93.0012C109.541 93.3144 109.207 93.5598 108.813 93.7375C108.419 93.9111 107.973 93.9978 107.474 93.9978C106.97 93.9978 106.519 93.9111 106.122 93.7375C105.728 93.5598 105.394 93.3144 105.119 93.0012C104.844 92.6838 104.634 92.3136 104.49 91.8904C104.346 91.4672 104.274 91.0081 104.274 90.5129ZM105.804 90.3669V90.5129C105.804 90.8219 105.836 91.1139 105.899 91.3889C105.963 91.664 106.062 91.9052 106.198 92.1125C106.333 92.3199 106.507 92.4828 106.718 92.6013C106.93 92.7198 107.182 92.7791 107.474 92.7791C107.757 92.7791 108.003 92.7198 108.21 92.6013C108.422 92.4828 108.595 92.3199 108.73 92.1125C108.866 91.9052 108.965 91.664 109.029 91.3889C109.097 91.1139 109.13 90.8219 109.13 90.5129V90.3669C109.13 90.0623 109.097 89.7745 109.029 89.5037C108.965 89.2286 108.864 88.9853 108.724 88.7737C108.589 88.5621 108.415 88.3971 108.204 88.2786C107.996 88.1558 107.749 88.0945 107.461 88.0945C107.173 88.0945 106.924 88.1558 106.712 88.2786C106.505 88.3971 106.333 88.5621 106.198 88.7737C106.062 88.9853 105.963 89.2286 105.899 89.5037C105.836 89.7745 105.804 90.0623 105.804 90.3669ZM114.748 92.7791C114.998 92.7791 115.222 92.7304 115.421 92.6331C115.624 92.5315 115.787 92.3918 115.91 92.2141C116.037 92.0364 116.106 91.8311 116.119 91.5984H117.56C117.552 92.0427 117.42 92.4469 117.167 92.8108C116.913 93.1747 116.576 93.4646 116.157 93.6804C115.738 93.892 115.275 93.9978 114.767 93.9978C114.242 93.9978 113.785 93.9089 113.396 93.7312C113.007 93.5492 112.683 93.2996 112.425 92.9822C112.167 92.6648 111.972 92.2987 111.841 91.884C111.714 91.4693 111.65 91.025 111.65 90.551V90.3289C111.65 89.8549 111.714 89.4106 111.841 88.9958C111.972 88.5769 112.167 88.2087 112.425 87.8914C112.683 87.574 113.007 87.3264 113.396 87.1487C113.785 86.9667 114.24 86.8757 114.761 86.8757C115.311 86.8757 115.793 86.9858 116.208 87.2058C116.623 87.4216 116.949 87.7242 117.186 88.1135C117.427 88.4986 117.552 88.9472 117.56 89.4592H116.119C116.106 89.2053 116.043 88.9768 115.929 88.7737C115.819 88.5663 115.662 88.4013 115.459 88.2786C115.26 88.1558 115.021 88.0945 114.742 88.0945C114.433 88.0945 114.177 88.158 113.974 88.2849C113.771 88.4076 113.612 88.5769 113.498 88.7927C113.383 89.0043 113.301 89.2434 113.25 89.51C113.203 89.7724 113.18 90.0453 113.18 90.3289V90.551C113.18 90.8346 113.203 91.1096 113.25 91.3762C113.297 91.6428 113.377 91.8819 113.491 92.0935C113.61 92.3009 113.771 92.468 113.974 92.595C114.177 92.7177 114.435 92.7791 114.748 92.7791ZM120.277 84.1208V93.8708H118.741V84.1208H120.277ZM124.542 87.0027L121.553 90.3162L119.915 91.9919L119.515 90.697L120.753 89.1672L122.695 87.0027H124.542ZM123.025 93.8708L120.797 90.6462L121.762 89.5735L124.796 93.8708H123.025ZM128.415 93.9978C127.907 93.9978 127.448 93.9153 127.037 93.7502C126.631 93.581 126.284 93.3461 125.996 93.0457C125.713 92.7452 125.495 92.3918 125.342 91.9856C125.19 91.5793 125.114 91.1414 125.114 90.6716V90.4177C125.114 89.8803 125.192 89.3936 125.349 88.9578C125.505 88.5219 125.723 88.1495 126.002 87.8406C126.282 87.5274 126.612 87.2883 126.993 87.1233C127.374 86.9583 127.786 86.8757 128.23 86.8757C128.721 86.8757 129.151 86.9583 129.519 87.1233C129.887 87.2883 130.192 87.5211 130.433 87.8215C130.679 88.1178 130.861 88.4711 130.979 88.8816C131.102 89.2921 131.163 89.7449 131.163 90.24V90.8938H125.856V89.7957H129.652V89.675C129.644 89.4 129.589 89.1418 129.487 88.9006C129.39 88.6594 129.24 88.4648 129.037 88.3167C128.833 88.1685 128.563 88.0945 128.224 88.0945C127.97 88.0945 127.744 88.1495 127.545 88.2595C127.35 88.3653 127.187 88.5198 127.056 88.7229C126.925 88.926 126.823 89.1715 126.751 89.4592C126.684 89.7428 126.65 90.0623 126.65 90.4177V90.6716C126.65 90.9721 126.69 91.2514 126.771 91.5095C126.855 91.7634 126.978 91.9856 127.139 92.176C127.299 92.3665 127.494 92.5167 127.723 92.6267C127.951 92.7325 128.211 92.7854 128.503 92.7854C128.872 92.7854 129.2 92.7113 129.487 92.5632C129.775 92.4151 130.025 92.2056 130.236 91.9348L131.042 92.7156C130.894 92.9314 130.702 93.1388 130.465 93.3376C130.228 93.5323 129.938 93.691 129.595 93.8137C129.257 93.9364 128.863 93.9978 128.415 93.9978ZM136.546 92.449V84.1208H138.082V93.8708H136.692L136.546 92.449ZM132.077 90.5129V90.3796C132.077 89.8591 132.139 89.3852 132.261 88.9578C132.384 88.5261 132.562 88.1558 132.794 87.8469C133.027 87.5338 133.311 87.2947 133.645 87.1296C133.979 86.9604 134.356 86.8757 134.775 86.8757C135.19 86.8757 135.554 86.9561 135.867 87.1169C136.18 87.2778 136.446 87.5084 136.667 87.8088C136.887 88.1051 137.062 88.4605 137.193 88.8752C137.325 89.2857 137.418 89.7428 137.473 90.2463V90.6716C137.418 91.1625 137.325 91.6111 137.193 92.0173C137.062 92.4236 136.887 92.7748 136.667 93.071C136.446 93.3673 136.178 93.5958 135.86 93.7566C135.547 93.9174 135.181 93.9978 134.762 93.9978C134.347 93.9978 133.973 93.9111 133.639 93.7375C133.309 93.564 133.027 93.3207 132.794 93.0076C132.562 92.6944 132.384 92.3263 132.261 91.9031C132.139 91.4757 132.077 91.0123 132.077 90.5129ZM133.607 90.3796V90.5129C133.607 90.8261 133.634 91.1181 133.689 91.3889C133.749 91.6597 133.84 91.8988 133.962 92.1062C134.085 92.3093 134.244 92.4701 134.438 92.5886C134.637 92.7029 134.874 92.76 135.149 92.76C135.496 92.76 135.782 92.6838 136.006 92.5315C136.231 92.3792 136.406 92.1739 136.533 91.9158C136.664 91.6534 136.753 91.3614 136.8 91.0398V89.8909C136.774 89.6412 136.722 89.4084 136.641 89.1926C136.565 88.9768 136.461 88.7885 136.33 88.6277C136.199 88.4626 136.036 88.3357 135.841 88.2468C135.651 88.1537 135.424 88.1072 135.162 88.1072C134.883 88.1072 134.646 88.1664 134.451 88.2849C134.257 88.4034 134.096 88.5663 133.969 88.7737C133.846 88.981 133.755 89.2222 133.696 89.4973C133.637 89.7724 133.607 90.0665 133.607 90.3796ZM141.446 84.6287L141.294 91.1477H139.986L139.828 84.6287H141.446ZM139.783 93.1472C139.783 92.9145 139.859 92.7198 140.012 92.5632C140.168 92.4024 140.384 92.322 140.659 92.322C140.93 92.322 141.144 92.4024 141.3 92.5632C141.457 92.7198 141.535 92.9145 141.535 93.1472C141.535 93.3715 141.457 93.564 141.3 93.7249C141.144 93.8814 140.93 93.9597 140.659 93.9597C140.384 93.9597 140.168 93.8814 140.012 93.7249C139.859 93.564 139.783 93.3715 139.783 93.1472Z" fill="#F54C5A"/>
<g filter="url(#filter1_d_1370_306179)">
<path d="M123 35.8709C123 47.4688 113.598 56.8709 102 56.8709C90.402 56.8709 81 47.4688 81 35.8709C81 24.2729 90.402 14.8708 102 14.8708C113.598 14.8708 123 24.2729 123 35.8709Z" fill="#F54C5A"/>
</g>
<path d="M125.264 36.0027C125.264 48.778 114.907 59.1345 102.132 59.1345C89.3565 59.1345 79 48.778 79 36.0027C79 23.2273 89.3565 12.8708 102.132 12.8708C114.907 12.8708 125.264 23.2273 125.264 36.0027Z" fill="#F54C5A"/>
<path d="M95.8495 31.3175C95.8495 31.9472 95.4297 32.5124 94.7678 32.5124C94.1059 32.5124 93.5893 32.028 92.6198 32.028C91.9256 32.028 91.2952 32.3993 91.2952 33.0775C91.2952 34.7407 96.689 33.675 96.689 37.8417C96.689 40.1516 94.7831 41.5895 92.5552 41.5895C91.3113 41.5895 88.6313 41.2988 88.6313 39.781C88.6313 39.1513 89.0519 38.6337 89.713 38.6337C90.4718 38.6337 91.3767 39.2635 92.4261 39.2635C93.4916 39.2635 94.0736 38.666 94.0736 37.874C94.0736 35.9687 88.6798 37.1151 88.6798 33.3682C88.6798 31.1068 90.5372 29.702 92.6844 29.702C93.5893 29.702 95.8495 30.0411 95.8495 31.3175V31.3175ZM96.9457 35.6457C96.9457 32.2863 99.2067 29.702 102.501 29.702C105.746 29.702 108.055 32.3662 108.055 35.6457C108.055 38.989 105.811 41.5887 102.501 41.5887C99.2228 41.5887 96.9457 38.989 96.9457 35.6457V35.6457ZM105.537 35.6457C105.537 33.6911 104.519 31.9303 102.501 31.9303C100.482 31.9303 99.465 33.6911 99.465 35.6457C99.465 37.6157 100.45 39.3604 102.501 39.3604C104.552 39.3596 105.537 37.6157 105.537 35.6457ZM115.53 31.3175C115.53 31.9472 115.11 32.5124 114.447 32.5124C113.784 32.5124 113.269 32.028 112.3 32.028C111.606 32.028 110.975 32.3993 110.975 33.0775C110.975 34.7407 116.369 33.675 116.369 37.8417C116.369 40.1516 114.465 41.5895 112.235 41.5895C110.993 41.5895 108.311 41.2988 108.311 39.781C108.311 39.1513 108.732 38.6337 109.395 38.6337C110.152 38.6337 111.058 39.2635 112.106 39.2635C113.171 39.2635 113.753 38.666 113.753 37.874C113.753 35.9687 108.36 37.1151 108.36 33.3682C108.36 31.1068 110.217 29.702 112.364 29.702C113.269 29.702 115.53 30.0411 115.53 31.3175V31.3175Z" fill="white"/>
<defs>
<filter id="filter0_ddd_1370_306179" x="0" y="23.8708" width="207" height="136" filterUnits="userSpaceOnUse" color-interpolation-filters="sRGB">
<feFlood flood-opacity="0" result="BackgroundImageFix"/>
<feColorMatrix in="SourceAlpha" type="matrix" values="0 0 0 0 0 0 0 0 0 0 0 0 0 0 0 0 0 0 127 0" result="hardAlpha"/>
<feOffset/>
<feGaussianBlur stdDeviation="0.5"/>
<feColorMatrix type="matrix" values="0 0 0 0 0.0627451 0 0 0 0 0.0901961 0 0 0 0 0.160784 0 0 0 0.04 0"/>
<feBlend mode="normal" in2="BackgroundImageFix" result="effect1_dropShadow_1370_306179"/>
<feColorMatrix in="SourceAlpha" type="matrix" values="0 0 0 0 0 0 0 0 0 0 0 0 0 0 0 0 0 0 127 0" result="hardAlpha"/>
<feOffset dy="2"/>
<feGaussianBlur stdDeviation="3"/>
<feColorMatrix type="matrix" values="0 0 0 0 0.0627451 0 0 0 0 0.0901961 0 0 0 0 0.160784 0 0 0 0.06 0"/>
<feBlend mode="normal" in2="effect1_dropShadow_1370_306179" result="effect2_dropShadow_1370_306179"/>
<feColorMatrix in="SourceAlpha" type="matrix" values="0 0 0 0 0 0 0 0 0 0 0 0 0 0 0 0 0 0 127 0" result="hardAlpha"/>
<feOffset dy="10"/>
<feGaussianBlur stdDeviation="12"/>
<feColorMatrix type="matrix" values="0 0 0 0 0.0636458 0 0 0 0 0.091325 0 0 0 0 0.1625 0 0 0 0.06 0"/>
<feBlend mode="normal" in2="effect2_dropShadow_1370_306179" result="effect3_dropShadow_1370_306179"/>
<feBlend mode="normal" in="SourceGraphic" in2="effect3_dropShadow_1370_306179" result="shape"/>
</filter>
<filter id="filter1_d_1370_306179" x="65" y="0.87085" width="74" height="74" filterUnits="userSpaceOnUse" color-interpolation-filters="sRGB">
<feFlood flood-opacity="0" result="BackgroundImageFix"/>
<feColorMatrix in="SourceAlpha" type="matrix" values="0 0 0 0 0 0 0 0 0 0 0 0 0 0 0 0 0 0 127 0" result="hardAlpha"/>
<feOffset dy="2"/>
<feGaussianBlur stdDeviation="8"/>
<feComposite in2="hardAlpha" operator="out"/>
<feColorMatrix type="matrix" values="0 0 0 0 0.905208 0 0 0 0 0.661458 0 0 0 0 0.681651 0 0 0 0.74 0"/>
<feBlend mode="normal" in2="BackgroundImageFix" result="effect1_dropShadow_1370_306179"/>
<feBlend mode="normal" in="SourceGraphic" in2="effect1_dropShadow_1370_306179" result="shape"/>
</filter>
</defs>
</svg>
